<svg width="411" height="761" xmlns="http://www.w3.org/2000/svg" xmlns:xlink="http://www.w3.org/1999/xlink" fill-opacity="0" fill="white"><defs><style>
  text {
    fill: #212529;
    font-family: Helvetica Neue, Helvetica, Arial, sans-serif;
    font-size: 16px;
  }

  marker, text {
    fill-opacity: 1;
  }

  * {
    overflow: visible;
  }
</style></defs><svg x="215" y="115" width="80" height="30" class="modell"><g><rect rx="10" ry="10" width="100%" height="100%" stroke="black"></rect><text x="40" y="15" text-anchor="middle" width="80" height="30" font-weight="bold" pointer-events="none"><tspan x="40" dy="5.5">modell</tspan></text></g></svg><svg x="15" y="115" width="80" height="30" class="index"><g><rect rx="10" ry="10" width="100%" height="100%" stroke="black"></rect><text x="40" y="15" text-anchor="middle" width="80" height="30" font-weight="bold" pointer-events="none"><tspan x="40" dy="5.5">index</tspan></text></g></svg><svg x="165" y="15" width="80" height="30" class="Frontend"><g><rect width="100%" height="100%" stroke="black"></rect><text x="40" y="15" text-anchor="middle" width="80" height="30" font-weight="bold" pointer-events="none"><tspan x="40" dy="5.5">Frontend</tspan></text></g></svg><svg x="115" y="115" width="80" height="30" class="unternehmen"><g><rect rx="10" ry="10" width="100%" height="100%" stroke="black"></rect><text x="40" y="15" text-anchor="middle" width="80" height="30" font-weight="bold" pointer-events="none"><tspan x="40" dy="5.5">unternehmen</tspan></text></g></svg><svg x="315" y="115" width="80" height="30" class="vorlagen"><g><rect rx="10" ry="10" width="100%" height="100%" stroke="black"></rect><text x="40" y="15" text-anchor="middle" width="80" height="30" font-weight="bold" pointer-events="none"><tspan x="40" dy="5.5">vorlagen</tspan></text></g></svg><svg x="315" y="265" width="80" height="30" class="vorlage"><g><rect rx="10" ry="10" width="100%" height="100%" stroke="black"></rect><text x="40" y="15" text-anchor="middle" width="80" height="30" font-weight="bold" pointer-events="none"><tspan x="40" dy="5.5">vorlage</tspan></text></g></svg><svg x="115" y="165" width="80" height="30" class="unternehmen"><g><rect rx="10" ry="10" width="100%" height="100%" stroke="black"></rect><text x="40" y="15" text-anchor="middle" width="80" height="30" font-weight="bold" pointer-events="none"><tspan x="40" dy="5.5">unternehmen</tspan></text></g></svg><svg x="115" y="215" width="80" height="30" class="projekte"><g><rect rx="10" ry="10" width="100%" height="100%" stroke="black"></rect><text x="40" y="15" text-anchor="middle" width="80" height="30" font-weight="bold" pointer-events="none"><tspan x="40" dy="5.5">projekte</tspan></text></g></svg><svg x="115" y="265" width="80" height="30" class="projekt"><g><rect rx="10" ry="10" width="100%" height="100%" stroke="black"></rect><text x="40" y="15" text-anchor="middle" width="80" height="30" font-weight="bold" pointer-events="none"><tspan x="40" dy="5.5">projekt</tspan></text></g></svg><svg x="115" y="365" width="80" height="30" class="szenarien"><g><rect rx="10" ry="10" width="100%" height="100%" stroke="black"></rect><text x="40" y="15" text-anchor="middle" width="80" height="30" font-weight="bold" pointer-events="none"><tspan x="40" dy="5.5">szenarien</tspan></text></g></svg><svg x="115" y="415" width="80" height="30" class="szenario"><g><rect rx="10" ry="10" width="100%" height="100%" stroke="black"></rect><text x="40" y="15" text-anchor="middle" width="80" height="30" font-weight="bold" pointer-events="none"><tspan x="40" dy="5.5">szenario</tspan></text></g></svg><svg x="215" y="365" width="80" height="30" class="evaluation"><g><rect rx="10" ry="10" width="100%" height="100%" stroke="black"></rect><text x="40" y="15" text-anchor="middle" width="80" height="30" font-weight="bold" pointer-events="none"><tspan x="40" dy="5.5">evaluation</tspan></text></g></svg><svg x="15" y="365" width="80" height="30" class="users"><g><rect rx="10" ry="10" width="100%" height="100%" stroke="black"></rect><text x="40" y="15" text-anchor="middle" width="80" height="30" font-weight="bold" pointer-events="none"><tspan x="40" dy="5.5">users</tspan></text></g></svg><svg x="115" y="515" width="80" height="30" class="frageboegen"><g><rect rx="10" ry="10" width="100%" height="100%" stroke="black"></rect><text x="40" y="15" text-anchor="middle" width="80" height="30" font-weight="bold" pointer-events="none"><tspan x="40" dy="5.5">frageboegen</tspan></text></g></svg><svg x="115" y="565" width="80" height="30" class="fragebogen"><g><rect rx="10" ry="10" width="100%" height="100%" stroke="black"></rect><text x="40" y="15" text-anchor="middle" width="80" height="30" font-weight="bold" pointer-events="none"><tspan x="40" dy="5.5">fragebogen</tspan></text></g></svg><svg x="215" y="665" width="80" height="30" class="evaluation"><g><rect rx="10" ry="10" width="100%" height="100%" stroke="black"></rect><text x="40" y="15" text-anchor="middle" width="80" height="30" font-weight="bold" pointer-events="none"><tspan x="40" dy="5.5">evaluation</tspan></text></g></svg><svg x="115" y="665" width="80" height="30" class="antworten"><g><rect rx="10" ry="10" width="100%" height="100%" stroke="black"></rect><text x="40" y="15" text-anchor="middle" width="80" height="30" font-weight="bold" pointer-events="none"><tspan x="40" dy="5.5">antworten</tspan></text></g></svg><svg x="115" y="715" width="80" height="30" class="antwort"><g><rect rx="10" ry="10" width="100%" height="100%" stroke="black"></rect><text x="40" y="15" text-anchor="middle" width="80" height="30" font-weight="bold" pointer-events="none"><tspan x="40" dy="5.5">antwort</tspan></text></g></svg><svg x="215" y="515" width="80" height="30" class="evaluation"><g><rect rx="10" ry="10" width="100%" height="100%" stroke="black"></rect><text x="40" y="15" text-anchor="middle" width="80" height="30" font-weight="bold" pointer-events="none"><tspan x="40" dy="5.5">evaluation</tspan></text></g></svg><svg x="55" y="45" width="150" height="70" class=""><g><polyline points="150 0,0 70" stroke="black" fill="none" stroke-width="1"></polyline></g></svg><svg x="205" y="45" width="50" height="70" class=""><g><polyline points="0 0,50 70" stroke="black" fill="none" stroke-width="1"></polyline></g></svg><svg x="155" y="45" width="50" height="70" class=""><g><polyline points="50 0,0 70" stroke="black" fill="none" stroke-width="1"></polyline></g></svg><svg x="205" y="45" width="150" height="70" class=""><g><polyline points="0 0,150 70" stroke="black" fill="none" stroke-width="1"></polyline></g></svg><svg x="355" y="145" width="1" height="120" class=""><g><polyline points="0 0,0 120" stroke="black" fill="none" stroke-width="1"></polyline></g></svg><svg x="155" y="145" width="1" height="20" class=""><g><polyline points="0 0,0 20" stroke="black" fill="none" stroke-width="1"></polyline></g></svg><svg x="155" y="195" width="1" height="20" class=""><g><polyline points="0 0,0 20" stroke="black" fill="none" stroke-width="1"></polyline></g></svg><svg x="155" y="245" width="1" height="20" class=""><g><polyline points="0 0,0 20" stroke="black" fill="none" stroke-width="1"></polyline></g></svg><svg x="155" y="295" width="1" height="70" class=""><g><polyline points="0 0,0 70" stroke="black" fill="none" stroke-width="1"></polyline></g></svg><svg x="155" y="395" width="1" height="20" class=""><g><polyline points="0 0,0 20" stroke="black" fill="none" stroke-width="1"></polyline></g></svg><svg x="55" y="295" width="100" height="70" class=""><g><polyline points="100 0,0 70" stroke="black" fill="none" stroke-width="1"></polyline></g></svg><svg x="155" y="295" width="100" height="70" class=""><g><polyline points="0 0,100 70" stroke="black" fill="none" stroke-width="1"></polyline></g></svg><svg x="155" y="545" width="1" height="20" class=""><g><polyline points="0 0,0 20" stroke="black" fill="none" stroke-width="1"></polyline></g></svg><svg x="155" y="445" width="1" height="70" class=""><g><polyline points="0 0,0 70" stroke="black" fill="none" stroke-width="1"></polyline></g></svg><svg x="155" y="595" width="1" height="70" class=""><g><polyline points="0 0,0 70" stroke="black" fill="none" stroke-width="1"></polyline></g></svg><svg x="155" y="695" width="1" height="20" class=""><g><polyline points="0 0,0 20" stroke="black" fill="none" stroke-width="1"></polyline></g></svg><svg x="155" y="595" width="100" height="70" class=""><g><polyline points="0 0,100 70" stroke="black" fill="none" stroke-width="1"></polyline></g></svg><svg x="155" y="445" width="100" height="70" class=""><g><polyline points="0 0,100 70" stroke="black" fill="none" stroke-width="1"></polyline></g></svg></svg>